<svg id="Layer_1" data-name="Layer 1" xmlns="http://www.w3.org/2000/svg" viewBox="0 0 24 24"><defs><style>.cls-2{fill:none;stroke:#000;stroke-linecap:round;stroke-linejoin:round}.cls-3{fill:#000}</style></defs><path fill="url(#linear-gradient)" d="M0 0h24v24H0z"/><path class="cls-2" d="M15.75 18.87V15.3s.19-1.84-3.73-3.38c-3.91-1.53-3.71-3.37-3.71-3.37V5"/><path class="cls-2" d="M8.35 18.87V15.3s-.2-1.84 3.72-3.38c3.92-1.54 3.72-3.38 3.72-3.38V5M6.7 4.82h10.6M6.7 19.18h10.6"/><path class="cls-3" d="M11.55 13.29h.89v.89h-.89z"/><path class="cls-3" transform="rotate(-90 12 15.04)" d="M11.55 14.59h.89v.89h-.89z"/><path class="cls-3" transform="rotate(-90 11.295 16.365)" d="M10.85 15.92h.89v.89h-.89z"/><path class="cls-3" transform="rotate(-90 12.69 17.74)" d="M12.24 17.29h.89v.89h-.89z"/><path class="cls-3" transform="rotate(-90 11.295 17.735)" d="M10.85 17.29h.89v.89h-.89z"/><path class="cls-3" transform="rotate(-90 12.69 16.36)" d="M12.24 15.92h.89v.89h-.89z"/><path class="cls-3" transform="rotate(90 11.985 9.965)" d="M11.54 9.52h.89v.89h-.89z"/><path class="cls-3" transform="rotate(90 12.69 8.59)" d="M12.24 8.14h.89v.89h-.89z"/><path class="cls-3" transform="rotate(90 11.3 8.59)" d="M10.85 8.14h.89v.89h-.89z"/><path class="cls-3" transform="rotate(-90 9.905 17.735)" d="M9.46 17.29h.89v.89h-.89z"/><path class="cls-3" transform="rotate(-90 14.085 17.735)" d="M13.64 17.29h.89v.89h-.89z"/></svg>