<svg xmlns="http://www.w3.org/2000/svg" width="2068" height="381" fill="none"><path fill="#fff" fill-rule="evenodd" d="M151.06 19.493 133.705 1.03c30.008-3.877 109.186 1.094 185.834 51.99.997 7.029.782 14.036.782 14.036l5.649 3.065.032.049.011-.072.115.07c3.168 5.455 6.371 13.588 8.417 23.157 2.475 11.579 3.18 24.909.294 37.656-2.908 12.844-8.427 23.444-13.831 31.198-3.993 5.729-7.801 9.734-10.303 11.927-9.791.206-28.018 6.791-33.229 29.621-15.701 9.009-40.351 18.014-72.911 18.014-31.102 0-62.829-9.031-86.679-26.521-23.753-17.419-39.706-43.204-39.706-77.151 0-27.004 12.07-48.098 27.378-63.612 15.358-15.564 36.353-28.174 48.529-32.36l-3.027-2.604zM285.562 63.79c-6.034 6.595-11.677 9.759-13.288 10.617-35.237-7.864-47.932-26.99-47.932-26.99 33.237-.215 63.236 8.08 85.185 22.11 0 0-11.881-4.04-23.965-5.737z" clip-rule="evenodd"/><path fill="#fff" d="M133.211 24.6C57.661 39.856 0 108.067 0 190.55 0 294.834 87.807 381 196.123 381c80.882 0 148.209-49.645 183.412-116.065-46.818 11.146-102.716-8.671-103.073-51.991-16.853 8.697-41.121 16.417-71.897 16.417-32.438 0-65.801-9.394-91.156-27.988-25.452-18.664-42.82-46.62-42.82-83.304 0-29.5 13.243-52.422 29.576-68.974 9.45-9.486 22.405-18.489 33.046-24.495zm208.755 67.126a103.159 103.159 0 0 0-3.821-13.432c20.31 15.236 36.127 36.029 34.809 65-1.898 41.728-27.007 58.146-43.083 60.882 7.717-12.997 1.286-21.206-1.286-23.942-1.251-1.332-3.834-3.574-8.27-4.973 2.195-2.414 4.562-5.341 6.912-8.714 5.856-8.401 11.849-19.898 15.014-33.877 3.187-14.075 2.373-28.558-.275-40.944zm751.754 6.029c27.79 0 45.25 7.886 61.78 22.035l-17.91 21.572c-12.4-10.67-24.81-17.164-45.02-17.164-29.39 0-52.13 25.979-52.13 57.061l.02 1.931c.63 32.652 22.28 56.521 54.64 56.521 15.39 0 28.94-4.871 38.81-12.293v-30.155l27.33-25.051v68.195c-16.07 13.685-38.58 25.283-67.06 25.283-50.29 0-83.36-36.185-83.36-83.504l.01-1.944c.73-44.815 34.73-82.487 82.89-82.487zm181.88 0c49.38 0 83.83 37.808 83.83 83.504l-.01 1.928c-.74 44.822-35.43 82.503-84.28 82.503-49.37 0-83.82-37.808-83.82-83.504l.01-1.928c.74-44.822 35.43-82.503 84.27-82.503zm-711.941 1.623 70.735 163.529-28.756-.001-55.529-129.43-55.124 129.43-28.242.001 70.735-163.529h26.181zm364.332 0 70.735 163.529-28.756-.001-55.529-129.43-55.124 129.43-28.242.001L901.81 99.378h26.181zm488.099 1.16 86.12 112.266V100.538H1530v162.369h-23.65l-88.65-115.514v115.514h-27.79V100.538h26.18zm-140.95 23.66c-31.92 0-54.2 25.515-54.2 57.061l.02 1.851c.65 30.917 22.96 56.137 54.64 56.137 31.92 0 54.2-25.515 54.2-57.061l-.01-1.852c-.65-30.916-22.97-56.136-54.65-56.136zM740.259 97.755c20.249 0 36.126 6.13 46.481 16.504 8.514 9.196 13.346 21.22 13.346 35.603l-.006 1.352c-.332 26.002-15.428 41.866-36.745 48.66l-1.446.444 43.489 62.482h-33.595l-39.578-57.53-20.774-.005 14.578-25.7 12.179.005c19.789 0 32.546-10.133 33.115-26.439l.02-1.147-.005-1.101c-.283-17.511-12.44-26.721-33.36-26.721h-41.189l-.004 51.019-.022-.003v36.807l.022-.013.004 50.828h-28.302V97.755h71.792z"/><path fill="#fff" fill-rule="evenodd" d="m1642.14 100.633-68.64 162.5h422.26l68.63-162.5h-422.25zm329.25 81.552c0 12.038-2.26 22.348-6.77 30.931-4.47 8.546-10.58 15.093-18.33 19.639-7.71 4.546-16.45 6.819-26.24 6.819-9.78 0-18.54-2.273-26.29-6.819-7.71-4.583-13.82-11.147-18.33-19.694-4.47-8.582-6.71-18.875-6.71-30.876 0-12.038 2.24-22.33 6.71-30.876 4.51-8.583 10.62-15.147 18.33-19.693 7.75-4.546 16.51-6.819 26.29-6.819 9.79 0 18.53 2.273 26.24 6.819 7.75 4.546 13.86 11.11 18.33 19.693 4.51 8.546 6.77 18.838 6.77 30.876zm-20.35 0c0-8.474-1.33-15.62-3.98-21.439-2.62-5.855-6.26-10.274-10.91-13.256-4.66-3.018-10.02-4.528-16.1-4.528-6.07 0-11.43 1.51-16.09 4.528-4.65 2.982-8.31 7.401-10.96 13.256-2.62 5.819-3.93 12.965-3.93 21.439s1.31 15.638 3.93 21.494c2.65 5.818 6.31 10.237 10.96 13.256 4.66 2.982 10.02 4.473 16.09 4.473 6.08 0 11.44-1.491 16.1-4.473 4.65-3.019 8.29-7.438 10.91-13.256 2.65-5.856 3.98-13.02 3.98-21.494zm-245.44 55.861h-12l10.28-17.511c7.78 0 15.01-1.418 20.21-4.255 5.2-2.873 9.11-7.146 11.73-12.82 2.62-5.709 3.93-12.838 3.93-21.384 0-8.546-1.31-15.638-3.93-21.275-2.62-5.674-6.49-9.91-11.62-12.711-5.09-2.836-11.42-4.255-18.99-4.255h-17.23v94.211h-20.24V126.324h38.62c11.09 0 20.62 2.237 28.59 6.71 8 4.437 14.14 10.819 18.43 19.148 4.3 8.328 6.44 18.293 6.44 29.894 0 11.638-2.16 21.639-6.49 30.003-4.29 8.365-10.49 14.784-18.6 19.257-8.08 4.474-17.79 6.71-29.13 6.71zm50.34-.285h21.48l37.81-88.357h.87l34.94 88.357h21.48l-44.43-111.152h-24.85l-47.3 111.152z" clip-rule="evenodd"/></svg>