<svg width="154" height="173" viewBox="0 0 154 173" fill="none" xmlns="http://www.w3.org/2000/svg">
<path fill-rule="evenodd" clip-rule="evenodd" d="M143.648 63.916C143.648 63.916 134.592 72.8203 125.076 74.681C115.561 76.5419 114.43 69.6309 114.43 69.6309L143.648 63.916Z" fill="#6F6DA4"/>
<path fill-rule="evenodd" clip-rule="evenodd" d="M143.639 63.8665C143.639 63.8665 131.916 59.0267 122.4 60.8874C112.885 62.7483 114.42 69.5808 114.42 69.5808L143.639 63.8665" fill="#6F6DA4"/>
<path fill-rule="evenodd" clip-rule="evenodd" d="M110.151 70.7212L144.544 63.9953L144.424 63.3786L110.032 70.1049L110.151 70.7212" fill="#3E3F71"/>
<path fill-rule="evenodd" clip-rule="evenodd" d="M114.911 28.4027C116.807 28.1269 118.448 26.8878 119.238 25.1393C119.807 23.8814 120.576 22.6888 121.549 21.6084C123.96 18.9312 127.185 17.4289 130.508 17.1367C132.295 16.9785 133.942 16.0602 134.916 14.5496C135.296 13.9585 135.757 13.4022 136.301 12.8958C139.361 10.0411 144.125 9.84169 147.411 12.4256C151.356 15.527 151.796 21.2656 148.49 24.9362C148.176 25.2857 147.839 25.6033 147.483 25.8884C146.082 27.0151 145.338 28.7492 145.366 30.547C145.418 33.8856 144.258 37.2529 141.847 39.93C140.901 40.9799 139.831 41.8487 138.678 42.5357C136.978 43.5485 135.868 45.3473 135.778 47.3252C135.583 51.5984 133.898 55.8313 130.679 59.1826C123.961 66.1729 112.811 66.6603 105.519 60.2892C97.8162 53.5596 97.1448 41.8395 103.972 34.259C106.943 30.96 110.84 28.9956 114.911 28.4027" fill="#FFD08D"/>
<path fill-rule="evenodd" clip-rule="evenodd" d="M89.5386 77.0036L110.861 53.3268L110.052 38.8657L110.841 38.8202L111.606 52.4992L121.89 41.0795L121.354 31.4669L122.143 31.4219L122.637 40.2507L131.8 30.0763L131.404 22.988L132.194 22.9432L132.546 29.2474L142.637 18.0427L143.225 18.5724L133.294 29.6006L139.259 29.2597L139.303 30.0502L132.541 30.4363L123.289 40.7089L131.977 40.2125L132.021 41.0038L122.536 41.5445L112.153 53.0739L125.906 52.2887L125.951 53.0794L111.4 53.9104L90.127 77.5301L89.5386 77.0036" fill="#3E3F71"/>
<g clip-path="url(#clip0_3477_10720)">
<mask id="mask0_3477_10720" style="mask-type:alpha" maskUnits="userSpaceOnUse" x="0" y="44" width="140" height="128">
<path d="M111.304 44.4404H28.7047L0.311035 81.4146V94.6197C0.311035 96.0782 1.46662 97.2608 2.89238 97.2608H5.47373V165.927C5.47373 168.844 7.7849 171.209 10.6361 171.209H129.373C132.224 171.209 134.535 168.844 134.535 165.927V97.2608H137.116C138.542 97.2608 139.698 96.0785 139.698 94.6197V81.4146L111.304 44.4404Z" fill="white"/>
</mask>
<g mask="url(#mask0_3477_10720)">
<path d="M111.304 44.4404H28.7047L0.311035 81.4146V94.6197C0.311035 96.0782 1.46662 97.2608 2.89238 97.2608H5.47373V165.927C5.47373 168.844 7.7849 171.209 10.6361 171.209H129.373C132.224 171.209 134.535 168.844 134.535 165.927V97.2608H137.116C138.542 97.2608 139.698 96.0785 139.698 94.6197V81.4146L111.304 44.4404Z" fill="url(#paint0_linear_3477_10720)"/>
</g>
<path fill-rule="evenodd" clip-rule="evenodd" d="M0.311035 81.415H139.697V94.6201C139.697 96.0786 138.542 97.2613 137.116 97.2613H2.89238C1.46691 97.2613 0.311035 96.0789 0.311035 94.6201V81.415Z" fill="#2CB6D4"/>
<mask id="mask1_3477_10720" style="mask-type:alpha" maskUnits="userSpaceOnUse" x="0" y="44" width="140" height="38">
<path d="M139.697 81.4146L111.304 44.4404H100.979H39.0295H28.7047L0.311035 81.4146H139.697Z" fill="white"/>
</mask>
<g mask="url(#mask1_3477_10720)">
<path d="M139.697 81.4146L111.304 44.4404H100.979H39.0295H28.7047L0.311035 81.4146H139.697Z" fill="url(#paint1_linear_3477_10720)"/>
</g>
<path fill-rule="evenodd" clip-rule="evenodd" d="M39.0297 57.6455H33.8673L26.1235 68.2095H39.0297H100.979H113.885L106.142 57.6455H100.979" fill="#4299AC"/>
<mask id="mask2_3477_10720" style="mask-type:alpha" maskUnits="userSpaceOnUse" x="39" y="18" width="62" height="51">
<path d="M44.1917 18.0303H95.8163C98.6676 18.0303 100.979 20.395 100.979 23.3123V68.2095H39.0293V23.3123C39.0293 20.395 41.3405 18.0303 44.1917 18.0303Z" fill="white"/>
</mask>
<g mask="url(#mask2_3477_10720)">
<path d="M44.1917 18.0303H95.8163C98.6676 18.0303 100.979 20.395 100.979 23.3123V68.2095H39.0293V23.3123C39.0293 20.395 41.3405 18.0303 44.1917 18.0303Z" fill="url(#paint2_linear_3477_10720)"/>
<path d="M71.6125 68.8588C79.7822 68.8588 86.4051 62.0833 86.4051 53.7253C86.4051 45.3673 79.7822 38.5918 71.6125 38.5918C63.4427 38.5918 56.8198 45.3673 56.8198 53.7253C56.8198 62.0833 63.4427 68.8588 71.6125 68.8588Z" fill="#EEFBFD"/>
<path d="M82.0014 49.1861C83.0615 50.6544 83.616 52.3896 83.616 54.1916C83.616 56.3774 82.7353 58.3963 81.2349 60.0315L82.1482 63.5187H84.9208L87.8402 60.1316L88.623 55.1761L88.7861 52.2228L85.8994 48.8857L82.0014 49.1861Z" fill="#A2E0EC"/>
<mask id="mask3_3477_10720" style="mask-type:alpha" maskUnits="userSpaceOnUse" x="49" y="45" width="39" height="39">
<path d="M49.8719 63.9197L50.3775 65.972C50.3775 65.972 56.3467 78.5026 69.7857 83.1578C69.7857 83.1578 82.0122 77.8186 87.4432 68.7585L79.9465 62.0677C79.9465 62.0677 76.3584 64.9876 71.0252 64.9876C65.692 64.9876 58.4507 61.734 58.4507 55.0265C58.4507 48.3191 65.953 45.8663 65.953 45.8663L62.7563 45.0654H54.5853L49.3989 57.8463L49.8719 63.9197Z" fill="white"/>
</mask>
<g mask="url(#mask3_3477_10720)">
<path d="M49.8719 63.9197L50.3775 65.972C50.3775 65.972 56.3467 78.5026 69.7857 83.1578C69.7857 83.1578 82.0122 77.8186 87.4432 68.7585L79.9465 62.0677C79.9465 62.0677 76.3584 64.9876 71.0252 64.9876C65.692 64.9876 58.4507 61.734 58.4507 55.0265C58.4507 48.3191 65.953 45.8663 65.953 45.8663L62.7563 45.0654H54.5853L49.3989 57.8463L49.8719 63.9197Z" fill="#A2E0EC"/>
</g>
<mask id="mask4_3477_10720" style="mask-type:alpha" maskUnits="userSpaceOnUse" x="44" y="35" width="52" height="35">
<path d="M95.0327 49.8335C94.8044 49.6 90.1086 43.436 71.7057 35.8349C71.0837 35.5869 70.4818 35.5683 69.8999 35.7789C53.0391 40.1775 44.7671 49.2556 44.7671 49.8335C44.7671 50.4115 47.1809 59.0974 48.7466 62.6347C48.8771 62.935 50.9647 66.7059 52.5141 68.7581C51.6007 66.7059 50.6059 64.9205 50.6059 61.8505C50.6059 53.1908 57.1622 46.1497 65.3659 45.8493C65.5616 45.8493 65.7736 45.8493 65.9693 45.866L64.0122 43.8638C64.0122 43.8638 71.8896 42.5123 82.0015 48.7692C82.0015 48.7692 82.1483 49.0863 82.0015 50.0206C82.0015 50.0206 86.7638 52.123 87.1716 56.2108C87.5793 60.2987 85.0513 62.6347 83.0127 62.9684C83.0127 62.9684 84.0728 61.2832 82.4418 60.3822C82.0993 60.1819 81.6916 60.0985 81.2839 60.1152C78.1688 60.1152 77.81 63.7526 77.81 63.7526C77.7773 63.9361 77.7773 64.1197 77.7773 64.3032C77.7773 64.3032 77.2554 69.6258 86.5192 69.5257C86.5192 69.5257 91.2163 64.0863 92.4558 59.1975C92.9125 57.3955 93.2387 56.044 93.4507 55.0429C93.9726 53.6246 94.4782 51.5354 94.9675 50.0171L95.0327 49.8335Z" fill="white"/>
</mask>
<g mask="url(#mask4_3477_10720)">
<path d="M95.0327 49.8335C94.8044 49.6 90.1086 43.436 71.7057 35.8349C71.0837 35.5869 70.4818 35.5683 69.8999 35.7789C53.0391 40.1775 44.7671 49.2556 44.7671 49.8335C44.7671 50.4115 47.1809 59.0974 48.7466 62.6347C48.8771 62.935 50.9647 66.7059 52.5141 68.7581C51.6007 66.7059 50.6059 64.9205 50.6059 61.8505C50.6059 53.1908 57.1622 46.1497 65.3659 45.8493C65.5616 45.8493 65.7736 45.8493 65.9693 45.866L64.0122 43.8638C64.0122 43.8638 71.8896 42.5123 82.0015 48.7692C82.0015 48.7692 82.1483 49.0863 82.0015 50.0206C82.0015 50.0206 86.7638 52.123 87.1716 56.2108C87.5793 60.2987 85.0513 62.6347 83.0127 62.9684C83.0127 62.9684 84.0728 61.2832 82.4418 60.3822C82.0993 60.1819 81.6916 60.0985 81.2839 60.1152C78.1688 60.1152 77.81 63.7526 77.81 63.7526C77.7773 63.9361 77.7773 64.1197 77.7773 64.3032C77.7773 64.3032 77.2554 69.6258 86.5192 69.5257C86.5192 69.5257 91.2163 64.0863 92.4558 59.1975C92.9125 57.3955 93.2387 56.044 93.4507 55.0429C93.9726 53.6246 94.4782 51.5354 94.9675 50.0171L95.0327 49.8335Z" fill="url(#paint3_linear_3477_10720)"/>
</g>
<path opacity="0.895424" d="M77.9729 50.3877C78.1033 50.321 78.5274 50.1041 79.0167 49.5868C79.9952 49.7203 80.9575 50.0373 80.9575 50.0373C79.1798 48.9361 76.7496 48.2854 74.0586 48.3021C74.0586 48.3021 75.0861 49.8037 77.9402 50.4211C77.9402 50.4211 77.9565 50.4044 77.9729 50.3877Z" fill="#67D2E9"/>
<path d="M95.212 49.0118C85.3938 40.3343 72.9823 35.8254 70.4054 34.9577L70.1608 34.8726L69.8346 34.7705L69.2638 34.9577C66.6869 35.8254 54.2754 40.3343 44.4571 49.0118L44.2451 49.1989L44.294 49.4882C44.3104 49.5563 45.3705 56.1409 48.9912 63.5763C51.1277 67.9491 53.7209 71.7434 56.6892 74.8911C60.3262 78.7364 64.5666 81.5779 69.2801 83.3474L69.5573 83.4495L69.8346 83.5516L70.1282 83.4325L70.4054 83.3304C75.1188 81.5609 79.343 78.7194 82.9963 74.8741C85.9646 71.7434 88.5578 67.9321 90.6943 63.5593C94.315 56.1409 95.3914 49.5392 95.3914 49.4712L95.4404 49.1819L95.212 49.0118ZM89.7973 63.0999C87.7097 67.3706 85.1817 71.0968 82.2787 74.1595C78.6743 77.9537 74.4991 80.7441 69.8346 82.4626C65.1701 80.7441 60.9949 77.9708 57.3905 74.1765C54.4874 71.1138 51.9595 67.4046 49.8719 63.134C46.7241 56.7024 45.5499 50.9344 45.3052 49.6073C55.3681 40.8107 68.0895 36.4209 69.8346 35.8424C71.5634 36.4209 84.301 40.8107 94.3639 49.6073C94.1193 50.9174 92.9287 56.6854 89.7973 63.0999Z" fill="#9AE1F1"/>
<path opacity="0.6" d="M101.895 63.7949H36.8174V68.2635H101.895V63.7949Z" fill="url(#paint4_linear_3477_10720)"/>
</g>
</g>
<defs>
<linearGradient id="paint0_linear_3477_10720" x1="90.687" y1="70.4241" x2="73.5282" y2="159.784" gradientUnits="userSpaceOnUse">
<stop stop-color="#98DEEE"/>
<stop offset="1" stop-color="#44C9E6"/>
</linearGradient>
<linearGradient id="paint1_linear_3477_10720" x1="70.0042" y1="69.6946" x2="70.0042" y2="26.2971" gradientUnits="userSpaceOnUse">
<stop stop-color="#98DEEE"/>
<stop offset="1" stop-color="#44C9E6"/>
</linearGradient>
<linearGradient id="paint2_linear_3477_10720" x1="29.1604" y1="19.8662" x2="80.5944" y2="65.6721" gradientUnits="userSpaceOnUse">
<stop stop-color="#FAF9F4"/>
<stop offset="1" stop-color="#CEF1F9"/>
</linearGradient>
<linearGradient id="paint3_linear_3477_10720" x1="51.2348" y1="54.6213" x2="83.1672" y2="41.167" gradientUnits="userSpaceOnUse">
<stop stop-color="#53DDFB"/>
<stop offset="1" stop-color="#44C9E6"/>
</linearGradient>
<linearGradient id="paint4_linear_3477_10720" x1="69.3563" y1="63.7949" x2="69.3563" y2="68.1703" gradientUnits="userSpaceOnUse">
<stop stop-color="#4299AC" stop-opacity="0"/>
<stop offset="1" stop-color="#4299AC" stop-opacity="0.48"/>
</linearGradient>
<clipPath id="clip0_3477_10720">
<rect width="139.769" height="153.421" fill="white" transform="translate(0.119629 18.7451)"/>
</clipPath>
</defs>
</svg>
