<svg width="916" height="381" fill="none" xmlns="http://www.w3.org/2000/svg"><path fill-rule="evenodd" clip-rule="evenodd" d="M151.641 19.491 134.22 1.03c30.124-3.877 109.607 1.094 186.552 51.99 1.001 7.029.785 14.036.785 14.036l5.67 3.065.033.05.011-.072.118.071c3.18 5.455 6.394 13.587 8.447 23.155 2.485 11.579 3.193 24.909.296 37.656-2.919 12.844-8.46 23.445-13.885 31.198-4.008 5.729-7.831 9.734-10.343 11.927-9.828.206-28.127 6.79-33.358 29.621-15.762 9.009-40.507 18.015-73.191 18.015-31.223 0-63.072-9.032-87.014-26.521-23.845-17.419-39.86-43.204-39.86-77.151 0-27.005 12.117-48.1 27.484-63.613 15.418-15.564 36.494-28.174 48.717-32.36l-3.041-2.606zm135.022 44.3c-6.057 6.594-11.722 9.758-13.339 10.616-35.373-7.864-48.117-26.99-48.117-26.99 33.366-.215 63.481 8.08 85.514 22.11 0 0-11.927-4.04-24.058-5.736z" fill="#3164FA"/><path d="M133.726 24.6C57.884 39.855 0 108.065 0 190.55 0 294.834 88.146 381 196.88 381c81.195 0 148.781-49.644 184.12-116.065-46.998 11.146-103.112-8.671-103.471-51.99-16.917 8.696-41.279 16.417-72.174 16.417-32.563 0-66.056-9.395-91.509-27.988-25.55-18.664-42.984-46.621-42.984-83.304 0-29.5 13.294-52.423 29.69-68.975 9.486-9.486 22.492-18.49 33.174-24.495zm209.561 67.126a102.956 102.956 0 0 0-3.836-13.43c20.388 15.236 36.265 36.028 34.942 64.999-1.905 41.728-27.111 58.146-43.249 60.882 7.746-12.997 1.291-21.206-1.291-23.942-1.256-1.332-3.849-3.574-8.302-4.973 2.203-2.414 4.58-5.341 6.94-8.715 5.878-8.401 11.894-19.898 15.071-33.877 3.199-14.075 2.383-28.558-.275-40.944z" fill="#3164FA"/><path fill-rule="evenodd" clip-rule="evenodd" d="m490.136 100.633-68.636 162.5h422.258l68.637-162.5H490.136zm329.251 81.552c0 12.038-2.254 22.348-6.764 30.931-4.473 8.546-10.583 15.093-18.329 19.639-7.71 4.546-16.457 6.819-26.24 6.819-9.783 0-18.547-2.273-26.294-6.819-7.71-4.583-13.82-11.147-18.329-19.694-4.473-8.582-6.71-18.875-6.71-30.876 0-12.038 2.237-22.33 6.71-30.876 4.509-8.583 10.619-15.147 18.329-19.693 7.747-4.546 16.511-6.819 26.294-6.819 9.783 0 18.53 2.273 26.24 6.819 7.746 4.546 13.856 11.11 18.329 19.693 4.51 8.546 6.764 18.838 6.764 30.876zm-20.347 0c0-8.474-1.328-15.62-3.983-21.439-2.618-5.855-6.255-10.274-10.91-13.256-4.655-3.018-10.019-4.528-16.093-4.528-6.073 0-11.438 1.51-16.093 4.528-4.655 2.982-8.31 7.401-10.965 13.256-2.618 5.819-3.927 12.965-3.927 21.439s1.309 15.638 3.927 21.494c2.655 5.818 6.31 10.237 10.965 13.256 4.655 2.982 10.02 4.473 16.093 4.473 6.074 0 11.438-1.491 16.093-4.473 4.655-3.019 8.292-7.438 10.91-13.256 2.655-5.856 3.983-13.02 3.983-21.494zm-245.443 55.861h-11.998l10.281-17.511c7.782 0 15.009-1.418 20.21-4.255 5.2-2.873 9.11-7.146 11.729-12.82 2.618-5.709 3.927-12.838 3.927-21.384 0-8.546-1.309-15.638-3.927-21.275-2.619-5.674-6.492-9.91-11.62-12.711-5.092-2.836-11.42-4.255-18.984-4.255h-17.238v94.211h-20.239V126.324h38.623c11.092 0 20.62 2.237 28.585 6.71 8.001 4.437 14.147 10.819 18.438 19.148 4.292 8.328 6.437 18.293 6.437 29.894 0 11.638-2.164 21.639-6.491 30.003-4.292 8.365-10.492 14.784-18.603 19.257-8.073 4.474-17.783 6.71-29.13 6.71zm50.338-.285h21.485l37.811-88.357h.868l34.94 88.357h21.485l-44.435-111.152H651.24l-47.305 111.152z" fill="#3164FA"/></svg>